<svg id="Calque_1" data-name="Calque 1" xmlns="http://www.w3.org/2000/svg" viewBox="0 0 1280 300"><defs><style>.cls-1{fill:#212529;stroke:#212529;stroke-miterlimit:8.93;stroke-width:2.15px;}</style></defs><path class="cls-1" d="M213,252.16l-67.39-34.64L78.88,253.4,91,178.6,36.26,126.22l74.87-11.59L144,46.39,178.19,114l75.08,10.2L199.5,177.61Z"/><path class="cls-1" d="M464.05,252.16l-67.38-34.64L329.93,253.4l12.12-74.8-54.74-52.38,74.88-11.59,32.9-68.24L429.25,114l75.08,10.2-53.77,53.39Z"/><path class="cls-1" d="M708.9,252.16l-67.38-34.64L574.78,253.4l12.12-74.8-54.74-52.38L607,114.63l32.9-68.24L674.1,114l75.08,10.2-53.77,53.39Z"/><path class="cls-1" d="M957.49,252.16,890.1,217.52,823.36,253.4l12.13-74.8-54.75-52.38,74.88-11.59,32.91-68.24L922.68,114l75.08,10.2L944,177.61Z"/><path class="cls-1" d="M1203.33,252.16,1136,217.52l-66.74,35.88,12.12-74.8-54.74-52.38,74.87-11.59,32.91-68.24L1168.53,114l75.07,10.2-53.76,53.39Z"/></svg>